<svg width="328" height="341" viewBox="0 0 328 341" fill="none" xmlns="http://www.w3.org/2000/svg">
<path d="M323.529 161.526C322.122 161.724 320.369 161.987 318.338 162.323C312.767 163.243 305.096 164.712 296.699 166.906C279.932 171.287 260.166 178.584 248.493 190.257C236.82 201.93 229.523 221.696 225.142 238.463C222.948 246.86 221.479 254.53 220.559 260.102C220.223 262.133 219.961 263.885 219.762 265.293C219.564 263.885 219.301 262.133 218.966 260.102C218.045 254.53 216.576 246.86 214.382 238.463C210.002 221.696 202.704 201.93 191.031 190.257C179.358 178.584 159.593 171.287 142.826 166.906C134.429 164.712 126.758 163.243 121.186 162.323C119.155 161.987 117.403 161.724 115.996 161.526C117.403 161.328 119.155 161.065 121.186 160.729C126.758 159.809 134.429 158.34 142.826 156.146C159.593 151.765 179.358 144.468 191.031 132.795C202.705 121.122 210.002 101.356 214.382 84.5894C216.576 76.1924 218.045 68.5216 218.966 62.95C219.301 60.9191 219.564 59.1667 219.762 57.7593C219.961 59.1667 220.223 60.9191 220.559 62.95C221.479 68.5216 222.948 76.1924 225.142 84.5894C229.523 101.356 236.82 121.122 248.493 132.795C260.166 144.468 279.932 151.765 296.699 156.146C305.096 158.34 312.767 159.809 318.338 160.729C320.369 161.065 322.122 161.328 323.529 161.526Z" stroke="#D9D9D9" stroke-opacity="0.2"/>
<path d="M158.257 71.7895C157.562 71.8934 156.782 72.0151 155.929 72.1561C152.211 72.7704 147.092 73.7506 141.488 75.2148C130.307 78.1362 117.091 83.0096 109.275 90.8256C101.459 98.6416 96.5854 111.857 93.664 123.038C92.1998 128.643 91.2196 133.762 90.6054 137.48C90.4643 138.333 90.3426 139.113 90.2387 139.808C90.1348 139.113 90.013 138.333 89.872 137.48C89.2578 133.762 88.2776 128.643 86.8134 123.038C83.892 111.857 79.0185 98.6416 71.2026 90.8256C63.3866 83.0096 50.1709 78.1362 38.9898 75.2148C33.3856 73.7506 28.2665 72.7704 24.5485 72.1561C23.6949 72.0151 22.9151 71.8934 22.2199 71.7895C22.9151 71.6856 23.6949 71.5638 24.5485 71.4228C28.2665 70.8086 33.3856 69.8284 38.9898 68.3642C50.1709 65.4428 63.3866 60.5693 71.2026 52.7534C79.0185 44.9374 83.892 31.7216 86.8134 20.5405C88.2776 14.9364 89.2578 9.8173 89.872 6.09931C90.013 5.24573 90.1348 4.46583 90.2387 3.77069C90.3426 4.46583 90.4643 5.24573 90.6054 6.09931C91.2196 9.8173 92.1998 14.9364 93.664 20.5405C96.5854 31.7216 101.459 44.9374 109.275 52.7534C117.091 60.5693 130.307 65.4428 141.488 68.3642C147.092 69.8284 152.211 70.8086 155.929 71.4228C156.782 71.5638 157.562 71.6856 158.257 71.7895Z" stroke="#D9D9D9" stroke-opacity="0.2"/>
<path d="M176.12 251.263C175.056 251.417 173.795 251.609 172.37 251.845C167.725 252.612 161.33 253.837 154.33 255.666C140.356 259.317 123.865 265.402 114.12 275.147C104.376 284.891 98.2905 301.382 94.6394 315.356C92.8103 322.357 91.5858 328.752 90.8185 333.396C90.583 334.822 90.3905 336.083 90.2368 337.146C90.0831 336.083 89.8907 334.822 89.6552 333.396C88.8879 328.752 87.6633 322.357 85.8342 315.356C82.1832 301.382 76.0978 284.891 66.3533 275.147C56.6088 265.402 40.118 259.317 26.1441 255.666C19.1435 253.837 12.7485 252.612 8.10376 251.845C6.6783 251.609 5.4174 251.417 4.35409 251.263C5.4174 251.11 6.6783 250.917 8.10376 250.682C12.7485 249.914 19.1435 248.69 26.1441 246.861C40.118 243.21 56.6088 237.124 66.3533 227.38C76.0978 217.635 82.1832 201.144 85.8342 187.17C87.6633 180.17 88.8879 173.775 89.6552 169.13C89.8907 167.705 90.0831 166.444 90.2368 165.38C90.3905 166.444 90.583 167.705 90.8185 169.13C91.5858 173.775 92.8103 180.17 94.6394 187.17C98.2905 201.144 104.376 217.635 114.12 227.38C123.865 237.124 140.356 243.21 154.33 246.861C161.33 248.69 167.725 249.914 172.37 250.682C173.795 250.917 175.056 251.11 176.12 251.263Z" stroke="#D9D9D9" stroke-opacity="0.2"/>
</svg>
