<svg width="37" height="37" viewBox="0 0 37 37" fill="none" xmlns="http://www.w3.org/2000/svg">
<path d="M-7158.99 -1256C-7158.99 -1257.1 -7158.09 -1258 -7156.99 -1258H2619.01C2620.12 -1258 2621.01 -1257.1 2621.01 -1256V16071C2621.01 16072.1 2620.12 16073 2619.01 16073H-7156.99C-7158.09 16073 -7158.99 16072.1 -7158.99 16071V-1256Z" fill="#444444"/>
<path d="M-7156.99 -1257H2619.01V-1259H-7156.99V-1257ZM2620.01 -1256V16071H2622.01V-1256H2620.01ZM2619.01 16072H-7156.99V16074H2619.01V16072ZM-7157.99 16071V-1256H-7159.99V16071H-7157.99ZM-7156.99 16072C-7157.54 16072 -7157.99 16071.6 -7157.99 16071H-7159.99C-7159.99 16072.7 -7158.65 16074 -7156.99 16074V16072ZM2620.01 16071C2620.01 16071.6 2619.56 16072 2619.01 16072V16074C2620.67 16074 2622.01 16072.7 2622.01 16071H2620.01ZM2619.01 -1257C2619.56 -1257 2620.01 -1256.55 2620.01 -1256H2622.01C2622.01 -1257.66 2620.67 -1259 2619.01 -1259V-1257ZM-7156.99 -1259C-7158.65 -1259 -7159.99 -1257.66 -7159.99 -1256H-7157.99C-7157.99 -1256.55 -7157.54 -1257 -7156.99 -1257V-1259Z" fill="white" fill-opacity="0.1"/>
<rect width="1413" height="823" transform="translate(-1158.99 -46)" fill="url(#paint0_radial_38_120)"/>
<rect x="-818.488" y="-45.5" width="1072" height="126" rx="15.5" stroke="#664DFF" stroke-opacity="0.7"/>
<g clip-path="url(#clip0_38_120)">
<path d="M34.0126 15.1198C34.833 12.6074 34.5596 9.82099 33.2378 7.53704C31.2323 4.01975 27.1758 2.23827 23.2104 3.06049C21.4784 1.0963 18.926 0 16.2824 0C12.2259 0 8.67078 2.6037 7.39457 6.44074C4.79658 6.98889 2.56322 8.58765 1.24143 10.9173C-0.764041 14.4346 -0.308253 18.8198 2.3809 21.8346C1.56048 24.3926 1.87953 27.1333 3.20132 29.4173C5.20679 32.9346 9.26331 34.7617 13.2287 33.8938C15.0062 35.858 17.5131 37 20.1567 37C24.2132 37 27.7683 34.3963 29.0445 30.5593C31.6425 30.0111 33.8759 28.4123 35.1977 26.0827C37.2031 22.5654 36.7474 18.1346 34.0126 15.1198ZM20.1567 34.579C18.5158 34.579 16.9661 34.0309 15.7355 32.9802C15.7811 32.9346 15.9178 32.8889 15.9634 32.8432L23.3016 28.5951C23.6662 28.3667 23.8941 28.0012 23.8941 27.5444V17.1753L26.9935 18.9568C27.0391 18.9568 27.0391 19.0025 27.0391 19.0481V27.6358C27.0846 31.4728 23.9853 34.579 20.1567 34.579ZM5.29795 28.2296C4.47753 26.8136 4.20405 25.1691 4.47753 23.5704C4.52311 23.616 4.61426 23.6617 4.70542 23.7074L12.0436 27.9556C12.4082 28.184 12.864 28.184 13.2287 27.9556L22.2077 22.7481V26.3568C22.2077 26.4025 22.2077 26.4481 22.1621 26.4481L14.7328 30.742C11.4511 32.6605 7.21226 31.5185 5.29795 28.2296ZM3.38363 12.1506C4.20405 10.7346 5.48026 9.68395 6.98436 9.09012V17.8605C6.98436 18.2716 7.21226 18.6827 7.57689 18.9111L16.5559 24.1185L13.4566 25.9C13.411 25.9 13.3654 25.9457 13.3654 25.9L5.93605 21.6062C2.56322 19.6877 1.46932 15.4395 3.38363 12.1506ZM28.9078 18.0889L19.9288 12.8815L23.0281 11.1C23.0737 11.1 23.1193 11.0543 23.1193 11.1L30.5486 15.3938C33.8759 17.3123 34.9698 21.5605 33.0555 24.8494C32.235 26.2654 30.9588 27.316 29.4547 27.8642V19.1395C29.5003 18.7284 29.2724 18.3173 28.9078 18.0889ZM31.9616 13.4296C31.916 13.384 31.8248 13.3383 31.7337 13.2926L24.3955 9.04444C24.0309 8.81605 23.5751 8.81605 23.2104 9.04444L14.2314 14.2519V10.6432C14.2314 10.5975 14.2314 10.5519 14.277 10.5519L21.7063 6.25802C25.0336 4.33951 29.2268 5.48148 31.1412 8.81605C31.9616 10.1864 32.235 11.8309 31.9616 13.4296ZM12.545 19.8247L9.44562 18.0432C9.40004 18.0432 9.40004 17.9975 9.40004 17.9519V9.3642C9.40004 5.52716 12.4994 2.42099 16.328 2.42099C17.9689 2.42099 19.5185 2.96914 20.7492 4.01975C20.7036 4.06543 20.6124 4.11111 20.5213 4.15679L13.1831 8.40494C12.8185 8.63333 12.5906 8.99877 12.5906 9.45556V19.8247H12.545ZM14.2314 16.1704L18.2423 13.8407L22.2533 16.1704V20.784L18.2423 23.1136L14.2314 20.784V16.1704Z" fill="white"/>
</g>
<defs>
<radialGradient id="paint0_radial_38_120" cx="0" cy="0" r="1" gradientUnits="userSpaceOnUse" gradientTransform="translate(706.5 7.71706e-06) rotate(90) scale(1046.66 3900.66)">
<stop offset="0.454963" stop-opacity="0"/>
<stop offset="0.821885" stop-color="#6633EE" stop-opacity="0.3"/>
<stop offset="1" stop-color="white"/>
</radialGradient>
<clipPath id="clip0_38_120">
<rect width="150" height="37" fill="white" transform="translate(0.0117188)"/>
</clipPath>
</defs>
</svg>
